<svg id="Layer_1" data-name="Layer 1" xmlns="http://www.w3.org/2000/svg" viewBox="0 0 32.67 32.67"><defs><style>.cls-1{fill:none;stroke:#abbaba;stroke-miterlimit:10;stroke-width:2px;}.cls-2{fill:#abbaba;}</style></defs><title>balance</title><circle class="cls-1" cx="16.33" cy="16.33" r="15.33"/><path class="cls-2" d="M1302.65,1158a6.81,6.81,0,0,1-2.64-.64,5,5,0,0,1-1.77-1.51l1.48-1.72a3.05,3.05,0,0,0,1.16,1.24,4.52,4.52,0,0,0,1.78.62v-2.64a13.71,13.71,0,0,1-2.06-.56,3.39,3.39,0,0,1-1.41-1,2.57,2.57,0,0,1-.57-1.75,3,3,0,0,1,1.07-2.35,5,5,0,0,1,3-1.13v-1.57h1.69v1.57a5.21,5.21,0,0,1,4.09,2.07l-1.48,1.67a3.71,3.71,0,0,0-1.11-1.21,3.3,3.3,0,0,0-1.5-.5v2.73a12.22,12.22,0,0,1,2,.57,3.47,3.47,0,0,1,1.4,1,2.67,2.67,0,0,1,.57,1.78,2.75,2.75,0,0,1-1.1,2.26,5.28,5.28,0,0,1-2.89,1v1.57h-1.69V1158Zm0-9.32a1.92,1.92,0,0,0-1,.42,1,1,0,0,0-.35.8,0.8,0.8,0,0,0,.35.69,3.07,3.07,0,0,0,1,.43v-2.33Zm3,6.16a0.84,0.84,0,0,0-.33-0.7,2.86,2.86,0,0,0-1-.43V1156A1.21,1.21,0,0,0,1305.64,1154.87Z" transform="translate(-1287 -1136)"/></svg>