<svg id="rating" xmlns="http://www.w3.org/2000/svg" viewBox="0 0 211.93 17.07">
  <defs>
    <style>
      .cls-4-i, cls-4-o {
        fill: #ecf0f1;
      }
      .cls-0-i,
      .cls-1-i,
      .cls-2-i,
      .cls-3-i,
      .cls-5-i,
      .cls-6-i,
      .cls-7-i,
      .cls-8-i {
        fill: transparent;
      }
      .cls-0-o,
      .cls-1-o,
      .cls-2-o,
      .cls-3-o,
      .cls-5-o,
      .cls-6-o,
      .cls-7-o,
      .cls-8-o {
        fill: #ecf0f1;
      }
      #score1 {
      fill: red;
      }
    </style>
  </defs>
  <title>rating</title>
  <g id="score1">
    <circle class="cls-0-i" cx="8.54" cy="8.54" r="8.04"/>
    <path class="cls-0-o" d="M583.32,2490.17a7.54,7.54,0,1,1-7.54,7.54,7.55,7.55,0,0,1,7.54-7.54m0-1a8.54,8.54,0,1,0,8.54,8.54,8.54,8.54,0,0,0-8.54-8.54h0Z" transform="translate(-574.79 -2489.17)"/>
  </g>
  <g id="score2">
    <circle class="cls-1-i" cx="32.89" cy="8.54" r="8.04"/>
    <path class="cls-1-o" d="M607.68,2490.17a7.54,7.54,0,1,1-7.54,7.54,7.55,7.55,0,0,1,7.54-7.54m0-1a8.54,8.54,0,1,0,8.54,8.54,8.54,8.54,0,0,0-8.54-8.54h0Z" transform="translate(-574.79 -2489.17)"/>
  </g>
  <g id="score3">
    <circle class="cls-2-i" cx="57.25" cy="8.54" r="8.04"/>
    <path class="cls-2-o" d="M632,2490.17a7.54,7.54,0,1,1-7.54,7.54,7.55,7.55,0,0,1,7.54-7.54m0-1a8.54,8.54,0,1,0,8.54,8.54,8.54,8.54,0,0,0-8.54-8.54h0Z" transform="translate(-574.79 -2489.17)"/>
  </g>
  <g id="score4">
    <circle class="cls-3-i" cx="81.61" cy="8.54" r="8.04"/>
    <path class="cls-3-o" d="M656.39,2490.17a7.54,7.54,0,1,1-7.54,7.54,7.55,7.55,0,0,1,7.54-7.54m0-1a8.54,8.54,0,1,0,8.54,8.54,8.54,8.54,0,0,0-8.54-8.54h0Z" transform="translate(-574.79 -2489.17)"/>
  </g>
  <g id="score5">
    <circle class="cls-4-i" cx="105.96" cy="8.54" r="8.04"/>
    <path class="cls-4-o" d="M680.75,2490.17a7.54,7.54,0,1,1-7.54,7.54,7.55,7.55,0,0,1,7.54-7.54m0-1a8.54,8.54,0,1,0,8.54,8.54,8.54,8.54,0,0,0-8.54-8.54h0Z" transform="translate(-574.79 -2489.17)"/>
  </g>
  <g id="score6">
    <circle class="cls-5-i" cx="130.32" cy="8.54" r="8.04"/>
    <path class="cls-5-o" d="M705.11,2490.17a7.54,7.54,0,1,1-7.54,7.54,7.55,7.55,0,0,1,7.54-7.54m0-1a8.54,8.54,0,1,0,8.54,8.54,8.54,8.54,0,0,0-8.54-8.54h0Z" transform="translate(-574.79 -2489.17)"/>
  </g>
  <g id="score7">
    <circle class="cls-6-i" cx="154.68" cy="8.54" r="8.04"/>
    <path class="cls-6-o" d="M729.46,2490.17a7.54,7.54,0,1,1-7.54,7.54,7.55,7.55,0,0,1,7.54-7.54m0-1a8.54,8.54,0,1,0,8.54,8.54,8.54,8.54,0,0,0-8.54-8.54h0Z" transform="translate(-574.79 -2489.17)"/>
  </g>
  <g id="score8">
    <circle class="cls-7-i" cx="179.03" cy="8.54" r="8.04"/>
    <path class="cls-7-o" d="M753.82,2490.17a7.54,7.54,0,1,1-7.54,7.54,7.55,7.55,0,0,1,7.54-7.54m0-1a8.54,8.54,0,1,0,8.54,8.54,8.54,8.54,0,0,0-8.54-8.54h0Z" transform="translate(-574.79 -2489.17)"/>
  </g>
  <g id="score9">
    <circle class="cls-8-i" cx="203.39" cy="8.54" r="8.04"/>
    <path class="cls-8-o" d="M778.18,2490.17a7.54,7.54,0,1,1-7.54,7.54,7.55,7.55,0,0,1,7.54-7.54m0-1a8.54,8.54,0,1,0,8.54,8.54,8.54,8.54,0,0,0-8.54-8.54h0Z" transform="translate(-574.79 -2489.17)"/>
  </g>
</svg>
