<svg id="rating" xmlns="http://www.w3.org/2000/svg" viewBox="0 0 211.93 17.07">
  <defs>
    <style>
      .cls-1 {
        fill: #ecf0f1;
      }
      #score1 circle, #score1 path {
      fill: red;
      }
    </style>
  </defs>
  <title>rating</title>
  <g id="score0">
    <circle class="cls-1" cx="8.54" cy="8.54" r="8.04"/>
    <path class="cls-1" d="M583.32,2490.17a7.54,7.54,0,1,1-7.54,7.54,7.55,7.55,0,0,1,7.54-7.54m0-1a8.54,8.54,0,1,0,8.54,8.54,8.54,8.54,0,0,0-8.54-8.54h0Z" transform="translate(-574.79 -2489.17)"/>
  </g>
  <g id="score1">
    <circle class="cls-1" cx="32.89" cy="8.54" r="8.04"/>
    <path class="cls-1" d="M607.68,2490.17a7.54,7.54,0,1,1-7.54,7.54,7.55,7.55,0,0,1,7.54-7.54m0-1a8.54,8.54,0,1,0,8.54,8.54,8.54,8.54,0,0,0-8.54-8.54h0Z" transform="translate(-574.79 -2489.17)"/>
  </g>
  <g id="score2">
    <circle class="cls-1" cx="57.25" cy="8.54" r="8.04"/>
    <path class="cls-1" d="M632,2490.17a7.54,7.54,0,1,1-7.54,7.54,7.55,7.55,0,0,1,7.54-7.54m0-1a8.54,8.54,0,1,0,8.54,8.54,8.54,8.54,0,0,0-8.54-8.54h0Z" transform="translate(-574.79 -2489.17)"/>
  </g>
  <g id="score3">
    <circle class="cls-1" cx="81.61" cy="8.54" r="8.04"/>
    <path class="cls-1" d="M656.39,2490.17a7.54,7.54,0,1,1-7.54,7.54,7.55,7.55,0,0,1,7.54-7.54m0-1a8.54,8.54,0,1,0,8.54,8.54,8.54,8.54,0,0,0-8.54-8.54h0Z" transform="translate(-574.79 -2489.17)"/>
  </g>
  <g id="score4">
    <circle class="cls-1" cx="105.96" cy="8.54" r="8.04"/>
    <path class="cls-1" d="M680.75,2490.17a7.54,7.54,0,1,1-7.54,7.54,7.55,7.55,0,0,1,7.54-7.54m0-1a8.54,8.54,0,1,0,8.54,8.54,8.54,8.54,0,0,0-8.54-8.54h0Z" transform="translate(-574.79 -2489.17)"/>
  </g>
  <g id="score5">
    <circle class="cls-1" cx="130.32" cy="8.54" r="8.04"/>
    <path class="cls-1" d="M705.11,2490.17a7.54,7.54,0,1,1-7.54,7.54,7.55,7.55,0,0,1,7.54-7.54m0-1a8.54,8.54,0,1,0,8.54,8.54,8.54,8.54,0,0,0-8.54-8.54h0Z" transform="translate(-574.79 -2489.17)"/>
  </g>
  <g id="score6">
    <circle class="cls-1" cx="154.68" cy="8.54" r="8.04"/>
    <path class="cls-1" d="M729.46,2490.17a7.54,7.54,0,1,1-7.54,7.54,7.55,7.55,0,0,1,7.54-7.54m0-1a8.54,8.54,0,1,0,8.54,8.54,8.54,8.54,0,0,0-8.54-8.54h0Z" transform="translate(-574.79 -2489.17)"/>
  </g>
  <g id="score7">
    <circle class="cls-1" cx="179.03" cy="8.54" r="8.04"/>
    <path class="cls-1" d="M753.82,2490.17a7.54,7.54,0,1,1-7.54,7.54,7.55,7.55,0,0,1,7.54-7.54m0-1a8.54,8.54,0,1,0,8.54,8.54,8.54,8.54,0,0,0-8.54-8.54h0Z" transform="translate(-574.79 -2489.17)"/>
  </g>
  <g id="score8">
    <circle class="cls-1" cx="203.39" cy="8.54" r="8.04"/>
    <path class="cls-1" d="M778.18,2490.17a7.54,7.54,0,1,1-7.54,7.54,7.55,7.55,0,0,1,7.54-7.54m0-1a8.54,8.54,0,1,0,8.54,8.54,8.54,8.54,0,0,0-8.54-8.54h0Z" transform="translate(-574.79 -2489.17)"/>
  </g>
</svg>
